<svg xmlns="http://www.w3.org/2000/svg" xmlns:xlink="http://www.w3.org/1999/xlink" version="1.1" x="0px" y="0px" viewBox="0 0 100 125" enable-background="new 0 0 100 100" xml:space="preserve"><g><path d="M58.583,29.913c-22.599,0-23.544-8.517-23.544-29.337c0,20.821-0.945,29.337-23.543,29.337   c22.599,0,23.543,8.519,23.543,29.341C35.04,38.432,35.985,29.913,58.583,29.913z"/><path d="M72.22,42.633c0-14.399,0.658-20.291,16.284-20.291c-15.626,0-16.284-5.891-16.284-20.292   c0,14.401-0.653,20.292-16.284,20.292C71.567,22.343,72.22,28.234,72.22,42.633z"/><path d="M56.852,40.745c0,20.823-0.945,29.341-23.545,29.341c22.6,0,23.545,8.519,23.545,29.339   c0-20.82,0.947-29.339,23.544-29.339C57.799,70.086,56.852,61.568,56.852,40.745z"/></g></svg>